<svg width="678" height="678" viewBox="0 0 678 678" fill="none" xmlns="http://www.w3.org/2000/svg">
<path d="M25.9795 569.734C36.4397 569.867 50.8676 569.933 66.7295 569.866H123.798L200.167 454.981C221.234 423.248 240.466 394.247 254.466 373.098C261.466 362.523 267.158 353.911 271.115 347.902C273.094 344.897 274.639 342.544 275.697 340.922C276.227 340.111 276.633 339.483 276.91 339.05C276.972 338.953 277.027 338.866 277.075 338.789C277.045 338.734 277.013 338.672 276.976 338.604C276.737 338.175 276.366 337.549 275.867 336.73C274.871 335.094 273.383 332.723 271.453 329.696C267.594 323.642 261.979 314.979 255.029 304.347C242.869 285.741 226.624 261.112 208.552 233.899L200.701 222.088L123.797 106.799L66.7314 106.667C50.8681 106.667 36.4389 106.733 25.9766 106.833C20.7449 106.883 16.5076 106.942 13.5801 107.004C12.418 107.029 11.4656 107.057 10.7412 107.082C10.9327 107.378 11.1529 107.72 11.4043 108.106C12.4297 109.678 13.9431 111.981 15.8916 114.937C19.7887 120.848 25.4248 129.364 32.3828 139.847C46.2988 160.813 65.4981 189.645 86.6309 221.244L86.6328 221.246C107.701 252.915 126.803 281.918 140.605 303.156C147.506 313.773 153.085 322.453 156.922 328.555C158.84 331.605 160.326 334.017 161.327 335.707C161.826 336.551 162.212 337.226 162.47 337.715C162.597 337.957 162.704 338.171 162.778 338.346C162.815 338.431 162.853 338.53 162.882 338.629C162.896 338.679 162.913 338.749 162.924 338.828C162.933 338.895 162.948 339.042 162.909 339.217L162.903 339.242L162.873 339.342C162.84 339.436 162.802 339.51 162.79 339.534C162.759 339.597 162.721 339.667 162.681 339.74C162.598 339.886 162.484 340.079 162.343 340.311C162.06 340.777 161.651 341.432 161.124 342.262C160.069 343.924 158.533 346.308 156.567 349.33C152.637 355.377 146.985 363.991 140.035 374.533C126.134 395.619 107.033 424.42 86.0986 455.822L86.0977 455.823L70.7627 478.775C55.8938 501.05 42.5786 521.062 32.2168 536.686C25.3088 547.102 19.7133 555.568 15.8457 561.453C13.9118 564.396 12.4115 566.693 11.3945 568.266C11.1215 568.688 10.8859 569.058 10.6846 569.373C11.4136 569.412 12.3882 569.455 13.5898 569.492C16.5141 569.584 20.7488 569.667 25.9795 569.734Z" fill="#676767" stroke="#969696" stroke-width="2"/>
<path d="M222.067 570H278.73L297.233 542.048L297.234 542.047C307.498 526.585 319.233 508.982 323.239 503.106V503.105C327.303 497.11 392.932 398.682 457.751 301.412C490.16 252.779 522.364 204.438 546.566 168.088C558.667 149.913 568.767 134.736 575.892 124.02C579.455 118.661 582.273 114.418 584.226 111.474C585.202 110.001 585.962 108.854 586.49 108.054C586.595 107.895 586.69 107.749 586.776 107.618C586.562 107.582 586.303 107.543 585.994 107.506C584.34 107.308 581.555 107.15 577.273 107.033C569.792 106.829 557.843 106.753 539.608 106.781L531.403 106.8L474.205 106.933L426.5 178.886C413.299 198.821 401.198 216.924 392.329 230.027C387.894 236.579 384.266 241.883 381.711 245.543C380.435 247.372 379.424 248.796 378.711 249.762C378.357 250.242 378.068 250.621 377.855 250.882C377.751 251.009 377.648 251.127 377.557 251.22C377.515 251.262 377.448 251.328 377.366 251.389C377.326 251.418 377.25 251.47 377.147 251.515C377.07 251.548 376.814 251.651 376.491 251.57L376.454 251.561L376.417 251.549C376.208 251.479 376.073 251.353 376.065 251.347C376.023 251.31 375.99 251.276 375.97 251.255C375.929 251.211 375.89 251.164 375.857 251.124C375.789 251.04 375.703 250.929 375.605 250.797C375.407 250.531 375.131 250.145 374.782 249.651C374.083 248.662 373.079 247.215 371.805 245.362C369.257 241.655 365.622 236.311 361.171 229.727C352.27 216.558 340.103 198.423 326.835 178.488L278.867 106.667H166.589L167.334 107.971L167.349 107.994L167.361 108.02C167.36 108.017 167.368 108.032 167.391 108.072C167.413 108.11 167.442 108.159 167.48 108.222C167.556 108.347 167.66 108.515 167.793 108.726C168.06 109.146 168.433 109.727 168.91 110.461C169.862 111.928 171.221 113.998 172.939 116.604C176.375 121.814 181.25 129.163 187.2 138.113C199.099 156.013 215.298 180.313 232.898 206.713C268.004 259.305 297.495 303.543 298.776 305.664L298.777 305.663C299.706 307.124 304.767 314.98 310.226 322.969V322.97L320.226 337.637L320.606 338.194L320.232 338.755L243.032 454.355L243.031 454.356L235.155 466.116C217.023 493.207 200.718 517.691 188.484 536.152C181.493 546.702 175.831 555.283 171.917 561.26C169.961 564.249 168.443 566.585 167.415 568.188C167.122 568.645 166.87 569.04 166.66 569.374C167.382 569.414 168.349 569.456 169.542 569.494C172.436 569.588 176.625 569.675 181.798 569.75C190.85 569.881 202.9 569.974 216.264 569.995L222.067 570Z" fill="#D6D6D6" stroke="#A9A9A9" stroke-width="2"/>
<path d="M666.667 316.667V242.667H603.402L539.535 242.799L517.165 276.355C504.756 295.169 493.439 312.21 492.114 314.33L492.109 314.339L492.103 314.348L490.585 316.667H666.667Z" fill="#C3C3C3" stroke="#9C9C9C" stroke-width="2"/>
<path d="M539.397 433.734V433.734L666 433.337V359.33L564.863 358.934C516.857 358.8 491.305 358.767 477.519 359.033C470.616 359.167 466.709 359.375 464.422 359.675C462.141 359.974 461.708 360.343 461.495 360.583C460.637 361.648 457.183 366.643 452.431 373.647C447.671 380.663 441.648 389.632 435.732 398.505C429.816 407.379 424.01 416.155 419.683 422.786C417.52 426.103 415.729 428.879 414.479 430.862C413.993 431.634 413.593 432.283 413.285 432.793C413.583 432.806 413.924 432.82 414.308 432.833C416.009 432.893 418.522 432.956 421.763 433.021C428.244 433.15 437.62 433.284 449.193 433.401C472.339 433.634 504.268 433.801 539.397 433.734Z" fill="#C3C3C3" stroke="#9C9C9C" stroke-width="2"/>
</svg>
